<svg xmlns="http://www.w3.org/2000/svg" xmlns:svg="http://www.w3.org/2000/svg" xmlns:xlink="http://www.w3.org/1999/xlink" id="svg2" version="1.1" viewBox="0 0 744.094 1052.362"><metadata id="metadata249"/><defs id="defs4"><linearGradient id="linearGradient6910"><stop id="stop7" offset="0" stop-color="#fff"/><stop id="stop9" offset="1" stop-color="#fff" stop-opacity="0"/></linearGradient><linearGradient id="linearGradient6104"><stop id="stop12" offset="0" stop-color="#999"/><stop id="stop14" offset="1" stop-color="#999" stop-opacity="0"/></linearGradient><linearGradient id="linearGradient5409" x1="46.941" x2="30" y1="396.511" y2="371.648" gradientUnits="userSpaceOnUse"><stop id="stop17" offset="0" stop-color="#b7bec8"/><stop id="stop19" offset="1" stop-color="#b7bec8" stop-opacity="0"/></linearGradient><linearGradient id="linearGradient5413" x1="-74.793" x2="-126.58" gradientUnits="userSpaceOnUse"><stop id="stop22" offset="0" stop-color="#91d3ef"/><stop id="stop24" offset="1" stop-color="#91d3ef" stop-opacity="0"/></linearGradient><linearGradient id="linearGradient5415" x1="-79.297" x2="-99.392" y1="823.058" y2="817.33" gradientUnits="userSpaceOnUse"><stop id="stop27" offset="0" stop-color="#67c8de"/><stop id="stop29" offset="1" stop-color="#67c8de" stop-opacity="0"/></linearGradient><linearGradient id="linearGradient7437-7"><stop id="stop32" offset="0" stop-color="#ccc"/><stop id="stop34" offset="1" stop-color="#ccc" stop-opacity="0"/></linearGradient><radialGradient id="radialGradient5411" cx="30" cy="371.648" r="35" gradientUnits="userSpaceOnUse"><stop id="stop37" offset="0"/><stop id="stop39" offset="1" stop-opacity="0"/></radialGradient><radialGradient id="radialGradient7588" cx="80.388" cy="220.65" r="90.386" gradientTransform="matrix(2.34471,.20547,-.03504,.39991,64.95898,-166.68135)" gradientUnits="userSpaceOnUse"><stop id="stop42" offset="0" stop-color="#00aad4"/><stop id="stop44" offset="1" stop-color="#37abc8" stop-opacity="0"/></radialGradient><radialGradient id="radialGradient4296" cx="-131.958" cy="753.866" r="24.643" gradientTransform="matrix(1,-1.08696,.79993,.73593,-595.72082,44.49337)" gradientUnits="userSpaceOnUse"><stop id="stop47" offset="0" stop-color="#4d4d4d"/><stop id="stop49" offset="1" stop-color="#4d4d4d" stop-opacity="0"/></radialGradient><radialGradient id="radialGradient4411" cx="-127.549" cy="766.902" r="43.942" gradientTransform="matrix(-1,2.32184,-1.06623,-.45922,541.6544,1389.5596)" gradientUnits="userSpaceOnUse"><stop id="stop52" offset="0" stop-color="#41aac2"/><stop id="stop54" offset="1" stop-color="#41aac2" stop-opacity="0"/></radialGradient><radialGradient id="radialGradient4421" cx="207.615" cy="688.358" r="18.111" gradientTransform="matrix(-2.62235,-3.47615,1.98594,-1.49816,-321.52542,2221.7603)" gradientUnits="userSpaceOnUse"><stop id="stop57" offset="0" stop-color="#51b6cd"/><stop id="stop59" offset="1" stop-color="#51b6cd" stop-opacity="0"/></radialGradient><radialGradient id="radialGradient5662" cx="205.516" cy="856.454" r="9.643" gradientTransform="matrix(.11105,-27.40743,14.14803,.05732,-11640.316,6265.9211)" gradientUnits="userSpaceOnUse"><stop id="stop62" offset="0" stop-color="#92d1e0" stop-opacity=".635"/><stop id="stop64" offset="1" stop-color="#92d1e0" stop-opacity="0"/></radialGradient><radialGradient id="radialGradient6122" cx="166.315" cy="843.506" r="18.183" gradientTransform="matrix(1.63094,-.5471,.29153,.86907,-350.84247,200.52429)" gradientUnits="userSpaceOnUse"><stop id="stop67" offset="0" stop-color="#b3b3b3"/><stop id="stop69" offset="1" stop-color="#b3b3b3" stop-opacity="0"/></radialGradient><radialGradient id="radialGradient6906" cx="561.147" cy="624.317" r="29.799" gradientTransform="matrix(-3.3211232,3.8889166,-2.1269642,-1.8164217,3780.7838,-650.54111)" gradientUnits="userSpaceOnUse"><stop id="stop72" offset="0" stop-color="#57bad1"/><stop id="stop74" offset="1" stop-color="#57bad1" stop-opacity="0"/></radialGradient><radialGradient id="radialGradient5588" cx="10.895" cy="126.121" r="173.746" gradientTransform="matrix(3.16986,-1.02435,.41555,1.28592,-4.11201,-45.17275)" gradientUnits="userSpaceOnUse" xlink:href="#linearGradient6910"/><radialGradient id="radialGradient5644" cx="100.327" cy="179.795" r="4.041" gradientTransform="matrix(.54545,-6.16216,1.67258,.20937,-255.11814,763.10973)" gradientUnits="userSpaceOnUse" xlink:href="#linearGradient7437-7"/><radialGradient id="radialGradient3930" cx="-39.906" cy="880.293" r="173.844" gradientTransform="matrix(2.56545,-1.06144,.56372,1.37224,-125.14354,-614.85506)" gradientUnits="userSpaceOnUse" xlink:href="#linearGradient6910"/><radialGradient id="radialGradient3982" cx="-111.427" cy="710.542" r="148.628" gradientTransform="matrix(1.90945,.0658,-.00352,.10222,401.69637,426.65629)" gradientUnits="userSpaceOnUse" xlink:href="#linearGradient6910"/><radialGradient id="radialGradient4300" cx="91.731" cy="893.762" r="37.962" gradientTransform="matrix(-1.19013,-5.86042,3.17002,-1.16487,-2777.94,2626.0915)" gradientUnits="userSpaceOnUse" xlink:href="#linearGradient6910"/><radialGradient id="radialGradient6118" cx="102.712" cy="805.917" r="31.673" gradientTransform="matrix(-.02305,-1.18512,-.31806,-.03417,77.62456,1272.7649)" gradientUnits="userSpaceOnUse" xlink:href="#linearGradient7437-7"/><radialGradient id="radialGradient6120" cx="-218.571" cy="1108.857" r="47.951" gradientTransform="matrix(1.37183,-1.84969,.8265,.66438,-844.4546,5.08336)" gradientUnits="userSpaceOnUse" xlink:href="#linearGradient6104"/><radialGradient id="radialGradient6380" cx="8.081" cy="1089.062" r="83.313" gradientTransform="matrix(1.64122,-1.60048,.86236,.88431,-758.48165,-43.23691)" gradientUnits="userSpaceOnUse" xlink:href="#linearGradient6910"/><radialGradient id="radialGradient6120-0" cx="-218.571" cy="1108.857" r="47.951" gradientTransform="matrix(-2.1485789,0.82877805,-0.34282354,-1.0034808,607.86909,1549.688)" gradientUnits="userSpaceOnUse" xlink:href="#linearGradient6104"/><radialGradient id="radialGradient6853" cx="-416.753" cy="1067.964" r="153.612" gradientTransform="matrix(1.73105,.17323,-.02221,.28125,328.38096,907.42568)" gradientUnits="userSpaceOnUse" xlink:href="#linearGradient7437-7"/><radialGradient id="radialGradient6916" cx="252.538" cy="512.456" r="135.36" gradientTransform="matrix(1.8806,.0085,-4.4286399e-4,.09805,-222.15738,470.64671)" gradientUnits="userSpaceOnUse" xlink:href="#linearGradient6910"/><radialGradient id="radialGradient4460" cx="91.731" cy="893.762" r="37.962" gradientTransform="matrix(-1.9703522,5.6243679,-3.284781,-0.67098348,3729.7292,415.04469)" gradientUnits="userSpaceOnUse" xlink:href="#linearGradient6910"/><radialGradient id="radialGradient4462" cx="-131.958" cy="753.866" r="24.643" gradientTransform="matrix(1,-1.08696,0.79993,0.73593,-595.72082,44.49337)" gradientUnits="userSpaceOnUse" xlink:href="#radialGradient4296"/><radialGradient id="radialGradient4464" cx="-131.958" cy="753.866" r="24.643" gradientTransform="matrix(-1.1357983,-0.30551016,0.12624965,-0.86495123,369.43794,938.58941)" gradientUnits="userSpaceOnUse" xlink:href="#radialGradient4296"/><radialGradient id="radialGradient4466" cx="102.712" cy="805.917" r="31.673" gradientTransform="matrix(-0.61456822,1.0135803,0.25043192,0.19903137,507.06326,-14.627084)" gradientUnits="userSpaceOnUse" xlink:href="#linearGradient7437-7"/><radialGradient id="radialGradient4468" cx="166.315" cy="843.506" r="18.183" gradientTransform="matrix(-0.88762473,0.69268082,0.42023731,0.57535596,435.96304,-296.58003)" gradientUnits="userSpaceOnUse" xlink:href="#radialGradient6122"/></defs><path style="fill:#67c8de;stroke:#000;stroke-width:2.98778653" id="path111" d="m 516.43801,537.83775 -20.37232,-12.59696 a 26.079604,25.641036 67.131833 0 1 -8.84465,-35.78994 L 589.18088,318.46176 a 26.079604,25.641036 67.131833 0 1 35.26399,-8.51592 l 20.37232,12.59696 a 26.079604,25.641036 67.131833 0 1 8.84465,35.78994 L 551.70199,529.32182 a 26.079604,25.641036 67.131833 0 1 -35.26398,8.51593"/><path style="fill:url(#radialGradient4460)" id="path113" d="M 516.43797,537.83779 496.06565,525.24083 A 26.079604,25.641036 67.131833 0 1 487.221,489.4509 L 589.18082,318.46184 a 26.079604,25.641036 67.131833 0 1 35.26399,-8.51592 l 20.37232,12.59696 a 26.079604,25.641036 67.131833 0 1 8.84465,35.78994 L 551.70195,529.32187 a 26.079604,25.641036 67.131833 0 1 -35.26398,8.51592"/><g id="g115" transform="matrix(-0.47474028,-0.79164281,0.76368472,-0.4579741,-117.34413,787.11718)"><path id="path117" d="m -85,751.64789 c 0,21.30241 -16.62943,38.57143 -37.14286,38.57143 -20.51343,0 -37.14286,-17.26902 -37.14286,-38.57143 0,-21.30241 16.62943,-38.57143 37.14286,-38.57143 20.51343,0 37.14286,17.26902 37.14286,38.57143 z"/><path style="fill:url(#radialGradient4462)" id="path119" d="m -100,742.7193 c 0,14.79334 -11.03299,26.78571 -24.64286,26.78571 -13.60987,0 -24.64286,-11.99237 -24.64286,-26.78571 0,-14.79334 11.03299,-26.78572 24.64286,-26.78572 13.60987,0 24.64286,11.99238 24.64286,26.78572 z" transform="translate(0.2451,-0.95939)"/></g><path id="path229" d="m 605.68132,294.92813 c 13.73092,-8.2343 32.09875,-2.84209 41.02569,12.04382 8.92693,14.88592 5.03253,33.62856 -8.69839,41.86286 -13.73092,8.2343 -32.09875,2.84209 -41.02568,-12.04383 -8.92694,-14.88591 -5.03254,-33.62856 8.69838,-41.86285 z"/><path style="fill:url(#radialGradient4464)" id="path231" d="m 603.7689,308.96694 c 9.53537,-5.71826 22.06659,-2.34755 27.98926,7.52868 5.92268,9.87623 2.99403,22.51807 -6.54133,28.23634 -9.53537,5.71826 -22.06659,2.34755 -27.98927,-7.52868 -5.92268,-9.87623 -2.99402,-22.51808 6.54134,-28.23634 z"/><path id="path235" d="m 626.18689,320.56096 30.80259,18.06328 c 0,0 28.37357,-12.31396 46.5485,-48.27363 17.7778,-35.17393 -14.21051,-59.45152 -14.21051,-59.45152 0,0 -19.48043,23.61389 -15.87758,26.41655 14.44224,11.23517 2.0991,32.19708 -8.42038,38.64738 -6.95101,4.26216 -16.67352,0.96031 -21.22084,-1.0099 -1.06263,-0.80062 -12.01681,-9.31824 -10.59391,-19.54377 1.67917,-12.06679 15.2968,-32.27429 30.49911,-24.73996 3.7924,1.87955 17.08229,-25.69049 17.08229,-25.69049 0,0 -33.17007,-16.97505 -57.15989,14.32998 -24.52576,32.0044 -24.60612,62.27957 -24.60612,62.27957 l 27.28084,18.71813 0.0836,-0.13196 -0.20771,0.38631 z" style="fill:#666;stroke:#261c1c;stroke-width:4.01610994"/><path id="path237" d="m 634.34692,288.06 c -5.05006,-6.25483 -7.9953,-14.72734 -3.00116,-23.18247 4.99413,-8.45513 16.13483,-15.20353 20.41665,-15.72329 4.28182,-0.51975 -6.5225,-1.80867 -10.19631,-0.23407 -6.38669,2.73753 -15.89473,10.75938 -16.83912,17.74185 -0.94439,6.98248 9.53992,22.87941 9.61994,21.39798 z" style="fill:url(#radialGradient4466)"/><path id="path239" d="m 629.82287,318.05147 28.07395,16.41029 c 0,0 26.34969,-12.02205 43.70291,-46.03536 16.97415,-33.27023 -12.08718,-55.48527 -12.08718,-55.48527 0,0 -18.34725,22.46334 -15.07526,25.02949 13.11613,10.28676 1.38951,30.14366 -8.4115,36.36764 -6.47629,4.11263 -15.37808,1.18207 -19.53437,-0.58774 -0.96554,-0.7324 -10.91388,-8.53104 -9.43001,-18.13975 1.75115,-11.33896 14.63925,-30.5103 28.51819,-23.70523 3.46227,1.69761 16.17292,-24.36932 16.17292,-24.36932 0,0 -30.27357,-15.35022 -52.90553,14.3985 -23.13763,30.41342 -23.72367,58.79259 -23.72367,58.79259 l 24.81819,17.08361 0.0792,-0.12504 -0.19787,0.36556 z" style="fill:url(#radialGradient6120-0)"/><path id="path241" d="m 626.67256,316.53546 c 5.51153,4.29897 12.77497,3.0512 16.22334,-2.78698 3.44838,-5.83818 1.77586,-14.05596 -3.73567,-18.35493 -5.51153,-4.29897 -12.77497,-3.05119 -16.22334,2.78698 -3.44838,5.83818 -1.77586,14.05596 3.73567,18.35493 z" style="fill:url(#radialGradient4468)"/><path style="fill:url(#radialGradient6906)" id="path243" d="m 570.68873,492.44415 -34.99947,22.1667 c 4.53732,-20.96661 -31.12329,-10.27529 -41.74924,-6.76585 0,0 -4.1602,10.7399 -5.37063,0.86497 -1.21043,-9.87494 9.53486,-29.27535 9.53486,-29.27535 0,0 21.1384,-13.85436 34.3032,-7.61472 13.1648,6.23964 21.12901,27.37669 21.12901,27.37669 19.57437,-26.78147 44.99364,-62.62901 68.79793,-95.43942 l -51.64566,88.68698 z"/><g id="g87" transform="matrix(-.8294,0,0,.75159,-20.27254,81.36074)"><path id="path89" fill="#b3b3b3" stroke="#000" stroke-width="5.016" d="m-418.44154,1141.2987-1.68832-19.0074 159.54545-.9503c23.77705,7.4445.12773-17.0347 141.3961,30.8869l1.26623,13.7804-203.44155,37.0643-97.07791-61.7739z"/><path id="path91" fill="url(#radialGradient6853)" stroke="#000" stroke-width="5.016" d="m-418.44154,1141.2987-1.68832-19.0074 159.54545-.9503c23.77705,7.4445.12773-17.0347 141.3961,30.8869l1.26623,13.7804-203.44155,37.0643-97.07791-61.7739z"/><path id="path93" fill="gray" stroke="#000" stroke-width="5.016" d="m-418.44155,1122.2913 158.7013-15.2058 141.81818,43.7169-204.28571,32.3125-96.23377-60.8236z"/></g><g id="g95" transform="matrix(.84615,0,0,.75159,713.77916,70.90104)"><path id="path97" fill="#b3b3b3" stroke="#000" stroke-width="5.016" d="m-418.44154,1141.2987-1.68832-19.0074 159.54545-.9503c23.77705,7.4445.12773-17.0347 141.3961,30.8869l1.26623,13.7804-203.44155,37.0643-97.07791-61.7739z"/><path id="path99" fill="url(#radialGradient6853)" stroke="#000" stroke-width="5.016" d="m-418.44154,1141.2987-1.68832-19.0074 159.54545-.9503c23.77705,7.4445.12773-17.0347 141.3961,30.8869l1.26623,13.7804-203.44155,37.0643-97.07791-61.7739z"/><path id="path101" fill="gray" stroke="#000" stroke-width="5.016" d="m-418.44155,1122.2913 158.7013-15.2058 141.81818,43.7169-204.28571,32.3125-96.23377-60.8236z"/></g><path id="path103" fill="#666" fill-rule="evenodd" stroke="#100606" stroke-width="4" d="m434.36559,726.702c-45.18924,0-81.8125,18.5327-81.8125,41.4062 0,7.251 3.68822,14.0724 10.15625,20.0001-6.46803,5.9278-10.15625,12.7491-10.15625,20s3.68822,14.0723 10.15625,20c-6.46803,5.9278-10.15625,12.7491-10.15625,20s3.68822,14.0723 10.15625,20c-6.46803,5.9278-10.15625,12.7491-10.15625,20 0,22.8736 36.62326,41.4063 81.8125,41.4063s81.8125-18.5327 81.8125-41.4063c0-7.2509-3.68822-14.0722-10.15625-20 6.46803-5.9277 10.15625-12.749 10.15625-20s-3.68822-14.0722-10.15625-20c6.46803-5.9277 10.15625-12.749 10.15625-20s-3.68822-14.0722-10.15625-20c6.46803-5.9277 10.15625-12.7491 10.15625-20.0001 0-22.8735-36.62326-41.4062-81.8125-41.4062z"/><path id="path105" fill="#333" fill-rule="evenodd" d="m431.5759,726.10259c-45.18924,0-81.8125,18.5328-81.8125,41.4063 0,5.8453 2.40105,11.3937 6.71875,16.4375h150.1875c4.3177-5.0438 6.71875-10.5922 6.71875-16.4375 0-22.8735-36.62326-41.4063-81.8125-41.4063z"/><path id="path107" fill="#1a1a1a" fill-opacity=".332" stroke="#100606" stroke-width="4" d="m247.14286,730.95592c-45.18924,0-81.8125,18.5327-81.8125,41.4062 0,7.251 3.68822,14.07234 10.15625,20.00004-6.46803,5.9278-10.15625,12.7491-10.15625,20s3.68822,14.0723 10.15625,20c-6.46803,5.9278-10.15625,12.7491-10.15625,20s3.68822,14.0723 10.15625,20c-6.46803,5.9278-10.15625,12.7491-10.15625,20 0,22.8736 36.62326,41.4063 81.8125,41.4063s81.8125-18.5327 81.8125-41.4063c0-7.2509-3.68822-14.0722-10.15625-20 6.46803-5.9277 10.15625-12.749 10.15625-20s-3.68822-14.0722-10.15625-20c6.46803-5.9277 10.15625-12.749 10.15625-20s-3.68822-14.0722-10.15625-20c6.46803-5.9277 10.15625-12.74904 10.15625-20.00004 0-22.8735-36.62326-41.4062-81.8125-41.4062z"/><path id="path109" fill="url(#radialGradient6380)" stroke="#261c1c" stroke-width="3" d="m247.37054,732.97627c-45.18924,0-81.8125,18.5327-81.8125,41.4062 0,7.251 3.68822,14.07234 10.15625,20.00004-6.46803,5.9278-10.15625,12.7491-10.15625,20s3.68822,14.0723 10.15625,20c-6.46803,5.9278-10.15625,12.7491-10.15625,20s3.68822,14.07235 10.15625,20.00005c-6.46803,5.9278-10.15625,12.7491-10.15625,20 0,22.8736 36.62326,41.4063 81.8125,41.4063s81.8125-18.5327 81.8125-41.4063c0-7.2509-3.68822-14.0722-10.15625-20 6.46803-5.9277 10.15625-12.74905 10.15625-20.00005s-3.68822-14.0722-10.15625-20c6.46803-5.9277 10.15625-12.749 10.15625-20s-3.68822-14.0722-10.15625-20c6.46803-5.9277 10.15625-12.74904 10.15625-20.00004 0-22.8735-36.62326-41.4062-81.8125-41.4062z"/><g id="g121" transform="translate(-69.55943,538.62967)"><path id="path123" fill="#87cdde" stroke="#282e2f" stroke-width="3" d="m256.57874,153.32642c0,66.94702-77.78883,121.2183-173.74623,121.2183s-173.74623-54.27128-173.74623-121.2183 77.78884-121.21831 173.74623-121.21831 173.74623,54.27128 173.74623,121.21831z" transform="translate(326.74695,-215.06308)"/><path id="path125" fill="url(#radialGradient7588)" d="m247.14286-23.35211c0,0-15.71429-30-10.00001-54.28571 3.73064-15.85524 7.37883-33.85587 12.85715-37.14286 14.28571-8.57143 20.31309,27.47161 37.14285,32.85714l121.42857,28.57143 7.14286,10-168.57142,20z"/><path id="path127" fill="url(#radialGradient5588)" d="m256.57874,153.32642c0,66.94702-77.78883,121.2183-173.74623,121.2183s-173.74623-54.27128-173.74623-121.2183 77.78884-121.21831 173.74623-121.21831 173.74623,54.27128 173.74623,121.21831z" opacity=".909" transform="matrix(.99589,0,0,1,326.54654,-214.05293)"/></g><path id="path129" fill="#025" stroke="#a9cff4" stroke-width="4.79" d="m65,371.64789c0,18.93547-15.67003,34.28571-35,34.28571s-35-15.35024-35-34.28571 15.67003-34.28572 35-34.28572 35,15.35024 35,34.28572z" transform="matrix(-.89143,0,0,.95092,381.19133,79.83257)"/><path id="path131" fill="#fff" d="m65,371.64789c0,18.93547-15.67003,34.28571-35,34.28571s-35-15.35024-35-34.28571 15.67003-34.28572 35-34.28572 35,15.35024 35,34.28572z" transform="matrix(-.75251,0,0,.77236,378.99044,146.53073)"/><path id="path133" fill="url(#linearGradient5409)" stroke="url(#radialGradient5411)" d="m65,371.64789c0,18.93547-15.67003,34.28571-35,34.28571s-35-15.35024-35-34.28571 15.67003-34.28572 35-34.28572 35,15.35024 35,34.28572z" transform="matrix(-.75251,0,0,.77236,378.18327,146.52015)"/><g id="g135" transform="translate(455.85021,-400.80854)"><path id="path137" fill="#374548" d="m-37.14286,336.64789c0,7.1008-5.43654,12.85714-12.14286,12.85714s-12.14286-5.75634-12.14286-12.85714 5.43654-12.85714 12.14286-12.85714 12.14286,5.75633 12.14286,12.85714z" transform="matrix(-.89934,0,0,.92684,-131.25725,522.20156)"/><path id="path139" fill="#d7eef4" d="m-38.57143,335.93362c0,3.55041-3.51776,6.42858-7.85714,6.42858s-7.85714-2.87817-7.85714-6.42858 3.51776-6.42857 7.85714-6.42857 7.85714,2.87817 7.85714,6.42857z" transform="matrix(-.89934,0,0,1.1328,-133.31287,450.62822)"/><path id="path141" fill="#abe0ec" d="m-100.30577,807.07108c11.92405,0 22.08518,8.29963 25.99575,19.93938-1.71178-.53721-3.51512-.83499-5.3825-.83499h-44.59794c-.57876,0-1.14935.0127-1.71531.0668 4.09654-11.22586 14.04588-19.1712 25.70001-19.1712z"/><path id="path143" fill="#acf" stroke="url(#linearGradient5413)" stroke-width="1.956" d="m-126.06219,825.29495 50.75084-1e-005-50.75084,1e-005z"/><path id="path145" fill="url(#linearGradient5415)" d="m-99.53966,807.36044c11.92404,0 22.08518,8.29962 25.99574,19.93937-1.71177-.53721-3.51511-.83498-5.38251-.83498h-44.59792c-.57876,0-1.14935.0127-1.71531.0668 4.09653-11.22586 14.04587-19.17119 25.7-19.17119z"/></g><path id="path147" fill="#025" stroke="#a9cff4" stroke-width="4.79" d="m65,371.64789c0,18.93547-15.67003,34.28571-35,34.28571s-35-15.35024-35-34.28571 15.67003-34.28572 35-34.28572 35,15.35024 35,34.28572z" transform="matrix(-.72971,0,0,.84007,458.86553,123.21781)"/><path id="path149" fill="#fff" d="m65,371.64789c0,18.93547-15.67003,34.28571-35,34.28571s-35-15.35024-35-34.28571 15.67003-34.28572 35-34.28572 35,15.35024 35,34.28572z" transform="matrix(-.61599,0,0,.68233,455.45395,181.84201)"/><path id="path151" fill="url(#linearGradient5409)" stroke="url(#radialGradient5411)" d="m65,371.64789c0,18.93547-15.67003,34.28571-35,34.28571s-35-15.35024-35-34.28571 15.67003-34.28572 35-34.28572 35,15.35024 35,34.28572z" transform="matrix(-.61599,0,0,.68233,455.45394,181.84202)"/><g id="g153" transform="matrix(.81859,0,0,.88343,518.32652,-301.83957)"><path id="path155" fill="#374548" d="m-37.14286,336.64789c0,7.1008-5.43654,12.85714-12.14286,12.85714s-12.14286-5.75634-12.14286-12.85714 5.43654-12.85714 12.14286-12.85714 12.14286,5.75633 12.14286,12.85714z" transform="matrix(-.89934,0,0,.92684,-131.25725,522.20156)"/><path id="path157" fill="#d7eef4" d="m-38.57143,335.93362c0,3.55041-3.51776,6.42858-7.85714,6.42858s-7.85714-2.87817-7.85714-6.42858 3.51776-6.42857 7.85714-6.42857 7.85714,2.87817 7.85714,6.42857z" transform="matrix(-.89934,0,0,1.1328,-133.31287,450.62822)"/><path id="path159" fill="#abe0ec" d="m-100.30577,807.07108c11.92405,0 22.08518,8.29963 25.99575,19.93938-1.71178-.53721-3.51512-.83499-5.3825-.83499h-44.59794c-.57876,0-1.14935.0127-1.71531.0668 4.09654-11.22586 14.04588-19.1712 25.70001-19.1712z"/><path id="path161" fill="#acf" stroke="url(#linearGradient5413)" stroke-width="1.956" d="m-126.06219,825.29495 50.75084-1e-005-50.75084,1e-005z"/><path id="path163" fill="url(#linearGradient5415)" d="m-99.53966,807.36044c11.92404,0 22.08518,8.29962 25.99574,19.93937-1.71177-.53721-3.51511-.83498-5.38251-.83498h-44.59792c-.57876,0-1.14935.0127-1.71531.0668 4.09653-11.22586 14.04587-19.17119 25.7-19.17119z"/></g><path id="path165" fill="#666" d="m110.10663,176.05486c0,6.41575-3.27889,11.61675-7.32361,11.61675s-7.32361-5.201-7.32361-11.61675 3.27889-11.61676 7.32361-11.61676 7.32361,5.201 7.32361,11.61676z" transform="translate(96.50269,282.02163)"/><path id="path167" fill="url(#radialGradient5644)" d="m106.5711,177.065c0,4.46314-1.80905,8.08122-4.04061,8.08122s-4.04061-3.61808-4.04061-8.08122 1.80904-8.08122 4.04061-8.08122 4.04061,3.61809 4.04061,8.08122z" transform="matrix(1.375,0,0,1.15625,58.62519,253.09253)"/><path id="path169" fill="#67c8de" stroke="#000" stroke-width="3" d="m165.67118,489.34946v265.71873c0,0 73.46968,40.40611 170.81368,42.42641s176.87461-42.42641 176.87461-42.42641v-265.71873h-3.34584c-9.86236,2.99055-91.8086,25.21828-161.62256,23.20622-49.00151-1.41224-150.21652-18.1785-176.67879-23.20622h-6.0411z"/><path id="path171" fill="url(#radialGradient3930)" d="m170.72194,492.46113-2.02031,262.01742c0,0 71.12598,39.08635 166.77307,41.07845s176.87462-41.07845 176.87462-41.07845v-262.01742h-3.28751c-9.69045,2.94889-90.20819,24.867-158.80516,22.88297-48.14732-1.39257-147.59794-17.92528-173.59891-22.88297h-5.9358z"/><path id="path173" fill="#465861" fill-opacity=".859" stroke="#000" d="m165.28383,488.23852c-.0388,12.3834 11.07218,14.89775 17.6643,16.72895 44.78105,12.43956 109.99803,13.68945 154.72893,14.98985 63.02819,1.8323 151.62545-8.92074 173.77899-12.96954l.61062-18.74926c-184.61438,27.47478-346.64474-44.03792-346.78284,0z"/><path id="path175" fill="#465861" fill-opacity=".859" stroke="#000" stroke-width="2" d="m165.28383,488.23852c-.0388,12.3834 11.07218,14.89775 17.6643,16.72895 44.78105,12.43956 109.99804,13.68945 154.72893,14.98985 63.02819,1.8323 151.62545-8.92074 173.77899-12.96954l.61062-18.74926c-184.61438,27.47478-346.64474-44.03792-346.78284,0z"/><path id="path177" fill="url(#radialGradient3982)" d="m168.68434,487.10793c-.0334,8.92263 9.52715,10.7343 15.19939,12.05374 38.53224,8.96311 91.7916,6.29226 130.28068,7.22924 54.23313,1.32023 105.75862,1.48925 148.10105-4.34497 2.4987-.34429 5.17789-7.33344 2.66826-7.08087-129.40588,13.02349-296.13056-39.58788-296.24938-7.85714z" opacity=".625"/><path id="path179" fill="gray" stroke="#000" stroke-width="3.83" d="m178.52129,509.05141c-4.20696,0-8.25644.61111-12.09375,1.75v77.40625c0,1.34873-.11614,2.67655-.3125,3.96875 3.92819,1.19877 8.08581,1.84375 12.40625,1.84375 23.46448,0 42.5-19.00427 42.5-42.46875s-19.03552-42.5-42.5-42.5z"/><g id="g181" transform="matrix(1,0,0,.97381,297.73459,-183.14239)"><path id="path183" d="m-85,751.64789c0,21.30241-16.62943,38.57143-37.14286,38.57143s-37.14286-17.26902-37.14286-38.57143 16.62943-38.57143 37.14286-38.57143 37.14286,17.26902 37.14286,38.57143z"/><path id="path185" fill="url(#radialGradient4296)" d="m-100,742.7193c0,14.79334-11.03299,26.78571-24.64286,26.78571s-24.64286-11.99237-24.64286-26.78571 11.03299-26.78572 24.64286-26.78572 24.64286,11.99238 24.64286,26.78572z" transform="translate(.2451,-.95939)"/></g><path id="path187" fill="url(#radialGradient4421)" d="m510.01457,487.66557-22.3713,2.88253c14.90871-14.57472-2.7557-66.30063-13.13198-80.42968 25.2918,24.95236 34.73841,39.46419 35.50328,77.54715z" opacity=".476"/><path id="path189" fill="#999" d="m191.1635,765.69212c-2.02031-.50507-24.24366-10.6066-24.24366-10.6066v-155.5635l38.89087-29.29442-14.64721,195.46452z" opacity=".38"/><g id="g191" transform="translate(292.85714,-212.85714)"><path id="path193" fill="#67c8de" stroke="#000" stroke-width="3" d="m-76.61101,819.25287h23.98779a25.9683,25.9683 0 0,1 25.9683,25.9683v200.43834a25.9683,25.9683 0 0,1 -25.9683,25.9683h-23.98779a25.9683,25.9683 0 0,1 -25.9683-25.9683v-200.43834a25.9683,25.9683 0 0,1 25.9683-25.9683" transform="matrix(.90413,.4238,-.40702,.906,276.93907,30.01344)"/><path id="path195" fill="url(#radialGradient4300)" d="m-76.611,819.25281h23.98779a25.9683,25.9683 0 0,1 25.9683,25.9683v200.43834a25.9683,25.9683 0 0,1 -25.9683,25.9683h-23.98779a25.9683,25.9683 0 0,1 -25.9683-25.9683v-200.43834a25.9683,25.9683 0 0,1 25.9683-25.9683" transform="matrix(.90413,.4238,-.40702,.906,276.93907,30.01344)"/><path id="path197" fill="url(#radialGradient4411)" d="m-104.55079,755.37733-27.77919-12.6269c-28.83764-10.18434-47.8638,71.61205-60.10408,100.51017 0,0 40.07636-80.91741 51.0127-89.3985 11.63636-9.02395 35.86042,2.52538 36.87057,1.51523z"/></g><g id="g199" transform="matrix(.84615,0,0,.75159,182.76131,178.6243)"><path id="path201" d="m-85,751.64789c0,21.30241-16.62943,38.57143-37.14286,38.57143s-37.14286-17.26902-37.14286-38.57143 16.62943-38.57143 37.14286-38.57143 37.14286,17.26902 37.14286,38.57143z"/><path id="path203" fill="url(#radialGradient4296)" d="m-100,742.7193c0,14.79334-11.03299,26.78571-24.64286,26.78571s-24.64286-11.99237-24.64286-26.78571 11.03299-26.78572 24.64286-26.78572 24.64286,11.99238 24.64286,26.78572z" transform="translate(.2451,-.95939)"/></g><path id="path205" fill="url(#radialGradient5662)" d="m490.71429,492.36218 18.57143-1.42857-1.42857,265-17.85715,7.85714 .71429-271.42857z"/><g id="g207" transform="translate(278.57142,-312.85714)"><path id="path209" fill="#666" stroke="#261c1c" stroke-width="4.016" d="m-202.34375,1053.3125-35.6875,1.2187c0,0-17.38343,25.5834-13.5,65.6876 3.79856,39.2279 43.8125,42.625 43.8125,42.625s3.82456-30.3723-.71875-30.8126c-18.21239-1.7654-18.99896-26.0787-13.5625-37.1562 3.5923-7.3197 13.57287-9.7317 18.46875-10.5 1.3261.1079 15.1377,1.4435 19.40625,10.8438 5.03712,11.093 4.34332,35.4508-12.53125,37.2187-4.20958.441-.6875,30.8437-.6875,30.8437s37.10546-3.4047 40.625-42.6874c3.59816-40.1603-12.53125-65.7813-12.53125-65.7813l-33.0625-1.2187v.1562l-.0312-.4375z"/><path id="path211" fill="url(#radialGradient6118)" d="m-191.84965,1085.1366c7.6129,2.5826 14.63401,8.1649 14.93823,17.9801s-5.49759,21.4769-8.83702,24.2068 6.47818-1.9615 8.73959-5.2573c3.93122-5.7297 7.67238-17.5938 4.7346-23.9982s-20.30036-14.2258-19.5754-12.9314z"/><path id="path213" fill="url(#radialGradient6120)" d="m-204.07302,1057.3779-32.49786,1.1554c0,0-15.82973,24.254-12.29339,62.2742 3.45905,37.1896 39.89666,40.4101 39.89666,40.4101s3.48273-28.794-.65451-29.2115c-16.58462-1.6736-17.30088-24.7235-12.35033-35.2254 3.27123-6.9394 12.35977-9.226 16.81807-9.9544 1.20757.1022 13.78473,1.3685 17.67177,10.2803 4.58692,10.5166 3.95512,33.6087-11.41125,35.2847-3.83333.4181-.62604,29.241-.62604,29.241s33.78906-3.2278 36.99404-40.4692c3.27657-38.0735-11.41125-62.3632-11.41125-62.3632l-30.10745-1.1553v.148l-.0284-.4147z"/><path id="path215" fill="url(#radialGradient6122)" d="m195.96959,832.65399c0,9.20522-8.14069,16.66752-18.18274,16.66752s-18.18275-7.4623-18.18275-16.66752 8.1407-16.66752 18.18275-16.66752 18.18274,7.46231 18.18274,16.66752z" transform="matrix(-.02092,-.67489,-.7557,-.07423,432.73589,1251.0391)"/></g><path id="path217" fill="#666" d="m174.0421,905.38605c9.25476,14.56499 33.40676,21.07008 49.49747,14.14213-18.75229,1.84215-32.93116-8.16915-49.49747-14.14213z"/><path id="path219" fill="#666" d="m181.08335,828.85515c0,0 29.31798,16.95271 60.74898,17.5508s73.33027-9.80507 73.33027-9.80507-58.84833,5.40568-78.80109,3.85726-58.0732-13.14957-55.27816-11.60299z"/><path id="path221" fill="#666" d="m182.31891,875.07372c0,0 29.31798,16.95271 60.74898,17.5508s73.33027-9.80507 73.33027-9.80507-58.84833,5.40568-78.80109,3.85726-58.0732-13.14957-55.27816-11.60299z"/><path id="path223" fill="#333" d="m365.20787,904.45055c9.25476,14.565 33.40676,21.0701 49.49747,14.1422-18.75229,1.8421-32.93116-8.1692-49.49747-14.1422z"/><path id="path225" fill="#333" d="m372.24912,827.91965c0,0 29.31798,16.9527 60.74898,17.5508s73.33027-9.805 73.33027-9.805-58.84833,5.4056-78.80109,3.8572-58.0732-13.1496-55.27816-11.603z"/><path id="path227" fill="#333" d="m373.48468,874.13825c0,0 29.31798,16.9527 60.74898,17.5508s73.33027-9.8051 73.33027-9.8051-58.84833,5.4057-78.80109,3.8573-58.0732-13.1496-55.27816-11.603z"/><path id="path245" fill="url(#radialGradient6916)" d="m507.09658,510.92042c-89.44067,20.91832-179.7015,15.6369-270.72088,11.11168 90.51011,18.63135 184.1355,26.17206 270.72088-11.11168z"/></svg>